<svg width="343" height="586" viewBox="0 0 343 586" fill="none" xmlns="http://www.w3.org/2000/svg">
<path d="M68.9208 554.554C78.7884 552.584 89.7837 554.554 159.984 554.554C230.185 554.554 270.501 552.303 289.955 549.209C309.408 546.114 352.825 553.428 340.984 563.837C329.143 574.245 213.269 589.155 193.534 580.715C173.799 572.276 19.8648 590.28 32.2698 569.744C42.1938 553.316 60.8388 552.772 68.9208 554.554Z" fill="black" fill-opacity="0.13"/>
<g clip-path="url(#clip0_1_216)">
<path d="M129.068 145.084C127.648 145.885 126.196 145.986 125.812 145.314L121.608 137.916C121.223 137.244 122.064 136.051 123.479 135.248C124.899 134.447 126.358 134.343 126.738 135.013L130.942 142.411C131.326 143.083 130.483 144.281 129.068 145.084Z" fill="#2B242A"/>
<path d="M123.757 133.892C123.757 133.892 121.939 136.021 124.775 141.01C127.61 145.998 130.379 145.534 130.379 145.534C130.379 145.534 162.737 125.555 167.036 123.128C171.334 120.7 167.314 111.554 162.129 114.493C156.943 117.431 123.757 133.892 123.757 133.892Z" fill="#BC7BFB"/>
<g style="mix-blend-mode:soft-light">
<path d="M129.906 144.468C135.502 141.016 161.682 124.88 165.515 122.707L165.596 122.658C161.538 120.362 129.49 143.529 129.906 144.468Z" fill="white"/>
</g>
<g style="mix-blend-mode:multiply">
<path d="M130.284 143.55C129.664 141.457 129.543 139.284 130.5 137.258C131.71 134.68 133.83 132.68 135.983 130.866C141.08 126.579 146.477 122.892 153.06 121.362C157.908 120.239 163.241 120.095 167.623 122.702C170.94 119.804 167.05 111.707 162.129 114.493C156.949 117.422 123.76 133.888 123.76 133.888C123.76 133.888 121.942 136.017 124.777 141.005C127.613 145.993 130.381 145.529 130.381 145.529L130.917 145.197C130.666 144.664 130.454 144.113 130.284 143.55Z" fill="#BC7BFB"/>
</g>
<g style="mix-blend-mode:soft-light">
<g style="mix-blend-mode:soft-light">
<path d="M132.871 144L123.491 138.045C123.677 138.688 123.917 139.313 124.208 139.916L131.735 144.696C132.05 144.518 132.442 144.259 132.871 144Z" fill="white"/>
</g>
<g style="mix-blend-mode:soft-light">
<path d="M137.563 141.107L125.121 133.208L123.864 133.844L136.422 141.813C136.797 141.577 137.176 141.343 137.563 141.107Z" fill="white"/>
</g>
<g style="mix-blend-mode:soft-light">
<path d="M143.797 137.266L132.008 129.788C131.578 129.997 131.17 130.211 130.75 130.425L142.659 137.98L143.797 137.266Z" fill="white"/>
</g>
<g style="mix-blend-mode:soft-light">
<path d="M150.038 133.436L138.856 126.345L137.604 126.984L148.875 134.137L150.038 133.436Z" fill="white"/>
</g>
<g style="mix-blend-mode:soft-light">
<path d="M156.291 129.611L145.764 122.923L144.512 123.562L155.137 130.292L156.291 129.611Z" fill="white"/>
</g>
<g style="mix-blend-mode:soft-light">
<path d="M162.558 125.792L152.563 119.479C152.156 119.68 151.733 119.887 151.316 120.121L161.417 126.486L162.558 125.792Z" fill="white"/>
</g>
<g style="mix-blend-mode:soft-light">
<path d="M166.353 120.409L159.36 115.973L158.128 116.622L167.607 122.631L166.353 120.409Z" fill="white"/>
</g>
</g>
<path d="M172.763 119.333C177.554 116.621 216.512 117.111 227.118 117.465C225.049 114.653 202.983 107.416 202.983 107.416C202.983 107.416 207.246 111.676 200.79 111.983C191.936 112.409 181.629 112.597 179.571 112.639C176.301 112.693 175.983 110.994 177.388 108.849C178.24 107.544 183.745 98.728 188.958 91.1621C191.574 87.3677 194.061 91.7893 194.061 91.7893C194.061 91.7893 202.388 61.0166 197.759 65.8089C192.426 76.9107 173.419 108.409 168.221 111.335C163.023 114.262 167.97 122.038 172.763 119.333Z" fill="#352E35"/>
<path d="M222.367 46.1214C243.253 34.3007 267.863 38.2349 277.345 54.915C286.329 70.7225 278.465 92.3212 259.838 104.569C260.618 105.649 261.507 106.701 262.174 107.844C282.987 94.1621 291.739 70.0773 281.719 52.4365C271.148 33.8353 243.689 29.4345 220.384 42.6253C217.638 44.1748 215.018 45.9382 212.55 47.8991C213.343 48.9911 214.196 50.0387 215.105 51.0371C217.388 49.205 219.817 47.561 222.367 46.1214Z" fill="#BC7BFB"/>
<path d="M280.99 71.4023L280.06 71.9235L277.933 68.2244L280.931 66.5062C280.909 66.2447 280.88 65.9857 280.851 65.7267L277.586 67.5773L275.472 63.8782L279.199 61.7657L280.651 64.3112C280.521 63.5446 280.365 62.7906 280.179 62.0343L279.85 61.4273L280.016 61.3333C279.952 61.0946 279.885 60.861 279.82 60.6098L279.506 60.7877L277.389 57.0685L278.254 56.5904L277.94 55.9532L277.06 56.4615L274.945 52.7372L275.697 52.3101L275.273 51.7314L274.591 52.1177L272.689 48.83C272.141 48.2847 271.57 47.7596 270.955 47.2499L271.424 48.1077L267.691 50.2176L265.607 46.4831L268.075 45.0875C267.852 44.9403 267.624 44.7907 267.397 44.6536L265.258 45.8661L263.357 42.5231C262.922 42.3092 262.465 42.1407 262.012 41.9622L258.443 43.9706L256.326 40.2513L255.266 40.031L251.611 42.1103L250.067 39.3942L249.217 39.3463L251.003 42.4384L247.27 44.5483L245.156 40.8241L247.85 39.3013C247.363 39.2941 246.879 39.2944 246.39 39.3047L244.776 40.2173L244.308 39.3973L243.524 39.4571L244.156 40.5707L240.423 42.6806L238.935 40.0674L238.195 40.205L239.8 43.039L236.09 45.1413L233.975 41.417L234.656 41.0306C233.601 41.321 232.544 41.6416 231.5 41.9873L229.275 43.2457L229.077 42.9474L228.398 43.2407L228.647 43.677L224.917 45.7316L224.489 44.9818C224.273 45.0887 224.063 45.1947 223.86 45.2999L224.296 46.0724L220.574 48.1747L220.148 47.4324L219.545 47.8133L219.948 48.5255L216.22 50.638L216.007 50.3197C215.813 50.4692 215.623 50.6137 215.434 50.7658L215.572 51.0091L214.142 51.8175C213.267 52.5623 212.424 53.3312 211.613 54.1243L213.71 57.821L209.978 59.9309L208.525 57.3728C208.357 57.56 208.192 57.7547 208.034 57.9468L209.359 60.2792L205.642 62.3966L205.216 61.6543C205.069 61.8765 204.916 62.0963 204.769 62.3186L205.016 62.7474L204.194 63.2152C203.934 63.6268 203.685 64.0434 203.44 64.4625L205.37 63.3669L207.485 67.0912L203.732 69.1912L202.249 66.5804C202.122 66.8378 202 67.0851 201.868 67.3525L203.116 69.547L200.238 71.1739C200.045 71.7059 199.861 72.2429 199.683 72.7824L201.601 76.1531L198.437 77.9402C198.388 78.2424 198.349 78.5244 198.301 78.8392L201.95 76.77L204.07 80.4968L200.337 82.6067L198.279 78.9853C198.226 79.3857 198.178 79.7885 198.15 80.1762L199.719 82.9424L197.982 83.9136C197.989 84.1803 197.995 84.447 198.007 84.7161L200.058 83.5544L202.173 87.2787L198.563 89.3175C198.787 90.4123 199.074 91.4936 199.422 92.5558L200.288 94.0857L200.029 94.2281L200.323 94.9057L200.662 94.7151L202.777 98.4393L202.309 98.6987C202.434 98.9043 202.561 99.1048 202.696 99.3028L203.131 99.0588L204.965 102.294C205.598 103.019 206.268 103.71 206.972 104.366L206.221 103.049L209.953 100.939L212.063 104.661L209.217 106.273C209.42 106.435 209.628 106.587 209.84 106.742L212.442 105.293L214.557 109.017L214.049 109.307L214.823 109.687L214.911 109.637L214.985 109.767C215.349 109.946 215.713 110.125 216.095 110.269L215.531 109.283L219.264 107.173L221.379 110.898L220.001 111.676C220.325 111.772 220.643 111.866 220.966 111.949L221.733 111.517L222.151 112.249L223.09 112.46L222.326 111.131L225.684 109.232L227.798 112.957L227.544 113.101C227.966 113.139 228.387 113.177 228.813 113.205L232.498 111.115L233.711 113.255L234.512 113.21L233.111 110.79L236.844 108.68L238.747 112.03L237.005 113.012C237.663 112.952 238.27 112.856 238.91 112.757L239.094 112.652L239.134 112.723L239.883 112.595L239.715 112.299L243.447 110.189L244.262 111.619L244.985 111.428L244.083 109.843L247.816 107.733L249.133 110.056L249.807 109.798L248.436 107.38L252.169 105.27L253.751 108.061L254.39 107.748L252.785 104.927L256.517 102.817L258.132 105.668L258.743 105.297L257.135 102.468L260.868 100.359L262.297 102.874C262.493 102.732 262.684 102.587 262.875 102.443L261.489 100.005L265.221 97.8953L266.24 99.6507C266.423 99.4836 266.599 99.319 266.779 99.1569L265.855 97.5293L269.587 95.4193L269.931 95.9961C270.104 95.8114 270.267 95.6217 270.435 95.4346L270.233 95.0784L271.208 94.5293C271.617 94.0338 272.02 93.5358 272.408 93.0303L269.879 94.459L267.976 91.1084L271.668 88.9786L273.268 91.7975C273.423 91.5852 273.576 91.3654 273.726 91.1507L272.289 88.6252L276.021 86.5153L276.294 86.9943C276.419 86.742 276.543 86.4896 276.668 86.2373L276.622 86.152L276.75 86.0833C276.94 85.6998 277.127 85.3213 277.313 84.9428L276.268 85.5326L274.153 81.8083L277.886 79.6984L278.823 81.3511C278.933 81.0535 279.037 80.7535 279.133 80.4561L278.507 79.345L279.693 78.6739C279.782 78.3538 279.868 78.0263 279.95 77.7087L278.16 78.7104L276.045 74.9862L279.791 72.9013L280.649 74.4211C280.715 74.0333 280.768 73.6455 280.819 73.2501L280.414 72.5429L280.922 72.2532C280.948 71.9712 280.974 71.6892 280.99 71.4023ZM214.336 57.445L212.221 53.7207L215.954 51.6107L218.068 55.335L214.336 57.445ZM218.694 54.9842L216.58 51.2599L220.312 49.15L222.427 52.8742L218.694 54.9842ZM223.053 52.5234L220.938 48.7991L224.67 46.6892L226.785 50.4134L223.053 52.5234ZM227.411 50.0626L225.294 46.3434L229.026 44.2334L231.143 47.9527L227.411 50.0626ZM231.767 47.6069L229.617 43.8903L233.349 41.7804L235.464 45.5047L231.767 47.6069ZM208.123 66.7151L205.968 63.0087L209.701 60.8987L211.818 64.6179L208.123 66.7151ZM212.479 64.2593L210.327 60.5479L214.059 58.4379L216.174 62.1622L212.479 64.2593ZM216.837 61.7986L214.685 58.0871L218.417 55.9771L220.532 59.7014L216.837 61.7986ZM221.196 59.3378L219.043 55.6263L222.776 53.5164L224.89 57.2406L221.196 59.3378ZM225.554 56.877L223.402 53.1655L227.134 51.0556L229.249 54.7798L225.554 56.877ZM229.912 54.4162L227.758 50.7098L231.49 48.5998L233.607 52.3191L229.912 54.4162ZM234.271 51.9554L232.154 48.2362L235.886 46.1262L238.003 49.8455L234.271 51.9554ZM238.627 49.4997L236.512 45.7754L240.245 43.6655L242.359 47.3897L238.627 49.4997ZM242.985 47.0389L240.87 43.3146L244.603 41.2047L246.718 44.9289L242.985 47.0389ZM202.222 75.7871L200.107 72.0629L203.465 70.1639L205.58 73.8882L202.222 75.7871ZM206.201 73.5349L204.086 69.8106L207.819 67.7007L209.933 71.4249L206.201 73.5349ZM210.559 71.0741L208.442 67.3549L212.175 65.2449L214.292 68.9641L210.559 71.0741ZM214.915 68.6184L212.8 64.8941L216.533 62.7841L218.647 66.5084L214.915 68.6184ZM219.273 66.1576L217.159 62.4333L220.891 60.3233L223.006 64.0476L219.273 66.1576ZM223.632 63.6968L221.517 59.9725L225.25 57.8626L227.364 61.5868L223.632 63.6968ZM227.99 61.236L225.876 57.5117L229.608 55.4018L231.723 59.126L227.99 61.236ZM232.348 58.7752L230.231 55.056L233.964 52.946L236.081 56.6653L232.348 58.7752ZM236.707 56.3144L234.59 52.5952L238.322 50.4852L240.414 54.1669L236.707 56.3144ZM241.063 53.8587L238.948 50.1344L242.681 48.0245L244.795 51.7487L241.063 53.8587ZM245.421 51.3979L243.307 47.6736L247.039 45.5637L249.154 49.288L245.421 51.3979ZM249.779 48.9371L247.624 45.1678L251.357 43.0578L253.469 46.7872L249.779 48.9371ZM254.138 46.4763L252.023 42.752L255.756 40.6421L257.87 44.3664L254.138 46.4763ZM204.691 80.1309L202.576 76.4066L205.944 74.5126L208.059 78.2369L204.691 80.1309ZM208.68 77.8836L206.565 74.1593L210.303 72.0518L212.417 75.7761L208.68 77.8836ZM213.038 75.4228L210.921 71.7036L214.658 69.5961L216.775 73.3153L213.038 75.4228ZM217.399 72.957L215.284 69.2327L219.017 67.1353L221.131 70.8596L217.399 72.957ZM221.757 70.4962L219.643 66.7719L223.375 64.6619L225.49 68.3862L221.757 70.4962ZM226.116 68.0354L224.001 64.3111L227.728 62.1987L229.848 65.9254L226.116 68.0354ZM230.474 65.5746L228.359 61.8503L232.087 59.7379L234.206 63.4646L230.474 65.5746ZM234.832 63.1138L232.715 59.3946L236.448 57.2846L238.565 61.0039L234.832 63.1138ZM239.191 60.653L237.074 56.9338L240.801 54.8214L242.923 58.5431L239.191 60.653ZM243.547 58.1973L241.432 54.473L245.159 52.3606L247.274 56.0848L243.547 58.1973ZM247.905 55.7365L245.79 52.0122L249.518 49.8998L251.632 53.6241L247.905 55.7365ZM252.263 53.2757L250.091 49.5165L253.818 47.4041L255.93 51.1334L252.263 53.2757ZM256.622 50.8149L254.507 47.0907L258.235 44.9782L260.349 48.7025L256.622 50.8149ZM260.98 48.3541L258.863 44.6349L262.59 42.5225L264.708 46.2417L260.98 48.3541ZM202.877 86.9601L200.762 83.2358L204.495 81.1259L206.513 84.8155L202.877 86.9601ZM207.235 84.4993L205.126 80.7775L208.484 78.8786L210.593 82.6004L207.235 84.4993ZM211.219 82.2495L209.008 78.4906L212.736 76.3781L214.85 80.1024L211.219 82.2495ZM215.577 79.7887L213.364 76.0348L217.092 73.9224L219.209 77.6416L215.577 79.7887ZM219.936 77.328L217.723 73.5741L221.45 71.4616L223.567 75.1809L219.936 77.328ZM224.292 74.8722L222.081 71.1133L225.808 69.0008L227.923 72.7251L224.292 74.8722ZM228.65 72.4114L226.439 68.6525L230.167 66.5401L232.286 70.2417L228.65 72.4114ZM233.008 69.9506L230.798 66.1917L234.525 64.0793L236.64 67.8035L233.008 69.9506ZM237.367 67.4899L235.154 63.736L238.881 61.6235L240.998 65.3428L237.367 67.4899ZM241.725 65.0291L239.522 61.255L243.249 59.1426L245.341 62.8619L241.725 65.0291ZM246.081 62.5733L243.87 58.8144L247.598 56.702L249.715 60.4212L246.081 62.5733ZM250.439 60.1125L248.325 56.3883L252.057 54.2783L254.172 58.0026L250.439 60.1125ZM254.798 57.6518L252.552 53.8628L256.284 51.7529L258.396 55.4822L254.798 57.6518ZM259.156 55.191L257.042 51.4667L260.774 49.3568L262.889 53.081L259.156 55.191ZM263.515 52.7302L261.397 49.011L265.13 46.901L267.247 50.6202L263.515 52.7302ZM200.916 93.7424L198.802 90.0181L202.534 87.9082L204.649 91.6324L200.916 93.7424ZM205.275 91.2816L203.16 87.5573L206.893 85.4474L209.007 89.1716L205.275 91.2816ZM209.633 88.8208L207.508 85.0915L210.866 83.1926L212.981 86.9169L209.633 88.8208ZM213.617 86.571L211.502 82.8467L215.23 80.7343L217.344 84.4586L213.617 86.571ZM217.975 84.1102L215.863 80.3935L219.591 78.281L221.708 82.0003L217.975 84.1102ZM222.334 81.6494L220.217 77.9302L223.949 75.8203L226.066 79.5395L222.334 81.6494ZM226.69 79.1937L224.575 75.4694L228.308 73.3595L230.422 77.0838L226.69 79.1937ZM231.048 76.7329L228.913 72.9735L232.64 70.8611L234.753 74.5904L231.048 76.7329ZM235.406 74.2721L233.292 70.5479L237.024 68.4379L239.139 72.1622L235.406 74.2721ZM239.765 71.8113L237.65 68.0871L241.38 65.9822L243.497 69.7014L239.765 71.8113ZM244.123 69.3506L241.963 65.5913L245.695 63.4814L247.808 67.2107L244.123 69.3506ZM248.479 66.8948L246.364 63.1705L250.097 61.0606L252.214 64.7798L248.479 66.8948ZM252.837 64.434L250.723 60.7098L254.455 58.5998L256.57 62.3241L252.837 64.434ZM257.196 61.9732L255.018 58.2116L258.75 56.1016L260.863 59.831L257.196 61.9732ZM261.554 59.5125L259.44 55.7882L263.172 53.6782L265.287 57.4025L261.554 59.5125ZM265.913 57.0517L263.795 53.3324L267.528 51.2225L269.645 54.9417L265.913 57.0517ZM270.271 54.5909L268.073 50.8319L271.805 48.7219L273.917 52.4512L270.271 54.5909ZM203.385 98.0861L201.27 94.3618L205.003 92.2519L207.118 95.9761L203.385 98.0861ZM207.743 95.6253L205.629 91.901L209.361 89.7911L211.476 93.5154L207.743 95.6253ZM212.102 93.1645L209.987 89.4402L213.345 87.5413L215.46 91.2656L212.102 93.1645ZM216.081 90.9122L213.966 87.188L217.699 85.078L219.813 88.8023L216.081 90.9122ZM220.439 88.4515L218.322 84.7322L222.054 82.6223L224.172 86.3415L220.439 88.4515ZM224.795 85.9957L222.68 82.2714L226.413 80.1615L228.53 83.8807L224.795 85.9957ZM229.153 83.5349L227.039 79.8107L230.771 77.7007L232.886 81.425L229.153 83.5349ZM233.512 81.0741L231.374 77.3198L235.107 75.2099L237.219 78.9392L233.512 81.0741ZM237.87 78.6134L235.755 74.8891L239.488 72.7791L241.603 76.5034L237.87 78.6134ZM242.228 76.1526L240.114 72.4283L243.844 70.3234L245.961 74.0426L242.228 76.1526ZM246.587 73.6918L244.429 69.9401L248.162 67.8301L250.274 71.5595L246.587 73.6918ZM250.943 71.236L248.828 67.5118L252.561 65.4018L254.675 69.1261L250.943 71.236ZM255.301 68.7753L253.186 65.051L256.919 62.941L259.034 66.6653L255.301 68.7753ZM259.659 66.3145L257.484 62.5604L261.217 60.4504L263.329 64.1797L259.659 66.3145ZM264.018 63.8537L261.903 60.1294L265.636 58.0195L267.75 61.7437L264.018 63.8537ZM268.376 61.3929L266.259 57.6737L269.994 55.5587L272.109 59.283L268.376 61.3929ZM272.735 58.9321L270.539 55.1806L274.272 53.0707L276.384 56.8L272.735 58.9321ZM205.864 102.41L203.749 98.6853L207.482 96.5754L209.596 100.3L205.864 102.41ZM210.222 99.9488L208.108 96.2246L211.84 94.1146L213.955 97.8389L210.222 99.9488ZM214.581 97.4881L212.466 93.7638L215.824 91.8648L217.939 95.5891L214.581 97.4881ZM218.559 95.2358L216.404 91.5168L220.137 89.4068L222.252 93.1311L218.559 95.2358ZM222.918 92.775L220.77 89.0408L224.503 86.9309L226.63 90.6677L222.918 92.775ZM227.276 90.3142L225.119 86.6002L228.851 84.4903L230.968 88.2095L227.276 90.3142ZM231.632 87.8585L229.477 84.1395L233.21 82.0295L235.324 85.7538L231.632 87.8585ZM235.99 85.3977L233.84 81.6686L237.573 79.5586L239.685 83.288L235.99 85.3977ZM240.349 82.9369L238.194 79.2179L241.926 77.1079L244.041 80.8322L240.349 82.9369ZM244.707 80.4761L242.552 76.7571L246.285 74.6472L248.399 78.3714L244.707 80.4761ZM249.065 78.0153L246.911 74.2963L250.643 72.1864L252.74 75.9082L249.065 78.0153ZM253.424 75.5545L251.266 71.8406L254.999 69.7306L257.116 73.4499L253.424 75.5545ZM257.78 73.0988L255.625 69.3798L259.342 67.2372L261.457 70.9615L257.78 73.0988ZM262.138 70.638L259.95 66.9091L263.683 64.7992L265.795 68.5285L262.138 70.638ZM266.496 68.1772L264.382 64.4529L268.114 62.343L270.229 66.0673L266.496 68.1772ZM270.855 65.7164L268.738 61.9972L272.397 59.8575L274.512 63.5818L270.855 65.7164ZM275.213 63.2557L273.005 59.5294L276.738 57.4195L278.85 61.1488L275.213 63.2557ZM212.676 104.31L210.561 100.586L214.294 98.476L216.403 102.198L212.676 104.31ZM217.034 101.849L214.92 98.1252L218.278 96.2263L220.392 99.9505L217.034 101.849ZM221.013 99.5972L218.898 95.8729L222.631 93.763L224.746 97.4873L221.013 99.5972ZM225.371 97.1364L223.252 93.3971L226.984 91.2871L229.101 95.0064L225.371 97.1364ZM229.73 94.6756L227.613 90.9564L231.345 88.8465L233.462 92.5657L229.73 94.6756ZM234.086 92.2199L231.971 88.4956L235.704 86.3857L237.818 90.1099L234.086 92.2199ZM238.444 89.7591L236.307 86.0173L240.039 83.9074L242.151 87.6367L238.444 89.7591ZM242.802 87.2983L240.688 83.574L244.42 81.4641L246.535 85.1884L242.802 87.2983ZM247.161 84.8375L245.046 81.1133L248.753 78.9657L250.863 82.6875L247.161 84.8375ZM251.519 82.3767L249.362 78.6376L253.094 76.5277L255.201 80.2545L251.519 82.3767ZM255.878 79.916L253.76 76.1967L257.493 74.0868L259.605 77.8035L255.878 79.916ZM260.233 77.4602L258.119 73.7359L261.808 71.586L263.918 75.3078L260.233 77.4602ZM264.592 74.9994L262.417 71.2579L266.149 69.1479L268.256 72.8748L264.592 74.9994ZM268.95 72.5386L266.836 68.8144L270.568 66.7044L272.678 70.4262L268.95 72.5386ZM273.309 70.0779L271.191 66.3586L274.926 64.2436L277.036 67.9654L273.309 70.0779ZM215.21 108.686L213.096 104.962L216.823 102.85L218.938 106.574L215.21 108.686ZM219.569 106.226L217.454 102.501L220.736 100.565L222.851 104.289L219.569 106.226ZM223.547 103.973L221.433 100.249L225.165 98.139L227.28 101.863L223.547 103.973ZM227.906 101.512L225.718 97.7458L229.448 95.6409L231.56 99.3577L227.906 101.512ZM232.264 99.0517L230.147 95.3324L233.88 93.2225L235.992 96.9392L232.264 99.0517ZM236.623 96.5909L234.506 92.8717L238.233 90.7592L240.348 94.4835L236.623 96.5909ZM240.978 94.1351L238.773 90.3661L242.526 88.2661L244.635 91.9879L240.978 94.1351ZM245.337 91.6744L243.222 87.9501L246.95 85.8377L249.064 89.5619L245.337 91.6744ZM249.695 89.2136L247.581 85.4893L251.214 83.312L253.329 87.0363L249.695 89.2136ZM254.054 86.7528L251.828 82.9864L255.555 80.874L257.667 84.6033L254.054 86.7528ZM258.412 84.292L256.295 80.5728L260.022 78.4603L262.139 82.1796L258.412 84.292ZM262.768 81.8363L260.658 78.1145L264.269 75.9323L266.384 79.6565L262.768 81.8363ZM267.126 79.3755L264.883 75.6067L268.61 73.4942L270.722 77.2235L267.126 79.3755ZM271.485 76.9147L269.37 73.1904L273.097 71.078L275.212 74.8023L271.485 76.9147ZM275.843 74.4539L273.726 70.7347L277.461 68.6197L279.576 72.344L275.843 74.4539ZM267.454 91.5039L269.357 94.8545L265.624 96.9645L263.721 93.6139L267.454 91.5039ZM263.098 93.9597L265.001 97.3103L261.269 99.4202L259.221 96.0302L263.098 93.9597ZM258.638 96.3707L260.542 99.7213L256.809 101.831L254.906 98.4807L258.638 96.3707ZM254.28 98.8315L256.183 102.182L252.451 104.292L250.547 100.941L254.28 98.8315ZM249.922 101.292L251.825 104.643L248.092 106.753L246.166 103.41L249.922 101.292ZM245.568 103.743L247.471 107.094L243.739 109.204L241.836 105.853L245.568 103.743ZM241.21 106.204L243.115 109.549L239.383 111.659L237.477 108.314L241.21 106.204ZM273.565 82.1589L275.68 85.8832L271.947 87.9931L269.81 84.3017L273.565 82.1589ZM269.207 84.6197L271.321 88.344L267.589 90.4539L265.474 86.7297L269.207 84.6197ZM264.848 87.0805L266.966 90.7997L263.233 92.9222L261.116 89.203L264.848 87.0805ZM260.49 89.5413L262.6 93.3008L258.867 95.4108L256.755 91.6814L260.49 89.5413ZM256.134 91.997L258.249 95.7213L254.516 97.8312L252.402 94.107L256.134 91.997ZM251.776 94.4578L253.89 98.1821L250.158 100.292L248.043 96.5678L251.776 94.4578ZM247.417 96.9186L249.532 100.643L245.805 102.755L243.685 99.0285L247.417 96.9186ZM243.059 99.3794L245.174 103.104L241.441 105.214L239.327 101.489L243.059 99.3794ZM238.701 101.84L240.818 105.559L237.085 107.669L234.968 103.95L238.701 101.84ZM234.345 104.296L236.515 108.073L232.788 110.185L230.65 106.443L234.345 104.296ZM229.986 106.757L232.101 110.481L228.374 112.593L226.259 108.869L229.986 106.757ZM221.926 110.502L219.811 106.778L223.164 104.876L225.279 108.601L221.926 110.502ZM225.905 108.25L223.79 104.525L227.518 102.413L229.632 106.137L225.905 108.25ZM230.263 105.789L228.184 102.095L231.909 99.9872L234.026 103.706L230.263 105.789ZM234.622 103.328L232.515 99.6264L236.242 97.514L238.359 101.233L234.622 103.328ZM238.977 100.872L236.873 97.1656L240.626 95.0405L242.74 98.7648L238.977 100.872ZM243.336 98.4116L241.229 94.7099L244.956 92.5975L247.071 96.3217L243.336 98.4116ZM247.694 95.9508L245.575 92.224L249.307 90.1141L251.422 93.8384L247.694 95.9508ZM252.053 93.49L249.948 89.7833L253.681 87.6608L255.795 91.385L252.053 93.49ZM256.411 91.0292L254.299 87.3376L258.027 85.2252L260.134 88.952L256.411 91.0292ZM260.769 88.5684L258.662 84.8668L262.395 82.7568L264.512 86.476L260.769 88.5684ZM265.125 86.1127L263.021 82.406L266.736 80.281L268.85 84.0053L265.125 86.1127ZM269.484 83.6519L267.369 79.9654L271.102 77.8554L273.189 81.5723L269.484 83.6519ZM277.564 79.0762L273.837 81.1886L271.717 77.4619L275.45 75.3519L277.564 79.0762Z" fill="url(#paint0_linear_1_216)"/>
<path d="M264.4 106.342C263.32 105.495 262.308 104.565 261.373 103.561C259.87 104.625 258.315 105.612 256.713 106.519C235.798 118.32 211.214 114.398 201.734 97.7258C193.064 82.5053 199.991 61.9763 217.104 49.5107C216.178 48.529 215.365 47.4476 214.68 46.2864C195.461 60.1758 187.659 83.1781 197.327 100.182C207.895 118.788 235.342 123.176 258.662 109.993C260.642 108.885 262.558 107.666 264.4 106.342Z" fill="#352E35"/>
<path d="M221.023 46.9088L218.387 43.8065C215.729 45.4453 213.205 47.2915 210.839 49.3278L213.465 52.4251C215.819 50.3708 218.348 48.5251 221.023 46.9088Z" fill="#D1D1D1"/>
<path d="M258.436 105.46L261.067 108.56C263.711 106.898 266.221 105.033 268.574 102.981L265.939 99.879C263.607 101.955 261.096 103.823 258.436 105.46Z" fill="#D1D1D1"/>
<g style="mix-blend-mode:soft-light">
<path d="M278.393 54.0938C287.715 70.5007 279.258 92.9684 259.523 105.029C260.079 104.751 260.627 104.456 261.167 104.144C281.609 92.6126 289.488 70.0929 279.936 53.247C270.384 36.4012 245.584 33.452 228.256 41.8603C223.045 44.404 218.134 47.5176 213.613 51.1439C215.942 49.6233 224.756 43.6771 231.439 41.2305C250.169 34.3389 270.039 39.405 278.393 54.0938Z" fill="white"/>
</g>
<path d="M198.953 99.5132C189.201 82.349 199.141 64.983 202.942 58.1272C192.329 70.3893 189.813 86.9903 197.435 100.372C205.781 115.064 224.587 119.995 240.677 116.372C231.272 117.493 207.689 114.892 198.953 99.5132Z" fill="#2B242A"/>
<path d="M173.342 120.351C173.027 120.5 172.665 120.52 172.336 120.405C172.007 120.29 171.736 120.05 171.583 119.737L167.379 112.339C167.188 112.047 167.12 111.692 167.191 111.35C167.262 111.009 167.465 110.709 167.757 110.518C168.072 110.367 168.434 110.347 168.764 110.462C169.093 110.577 169.364 110.818 169.516 111.131L173.717 118.522C173.908 118.815 173.976 119.171 173.906 119.514C173.836 119.856 173.633 120.157 173.342 120.351Z" fill="#2B242A"/>
<path d="M167.357 111.528L163.202 113.878L168.109 122.512L172.263 120.161L167.357 111.528Z" fill="#161013"/>
<path d="M168.448 123.12C168.132 123.27 167.769 123.29 167.439 123.175C167.108 123.059 166.837 122.818 166.684 122.503L162.483 115.113C162.292 114.82 162.224 114.464 162.294 114.121C162.364 113.779 162.567 113.478 162.858 113.284C163.175 113.134 163.537 113.116 163.867 113.232C164.197 113.348 164.468 113.59 164.619 113.905L168.821 121.296C169.011 121.588 169.078 121.943 169.008 122.284C168.938 122.625 168.737 122.925 168.448 123.12Z" fill="#2B242A"/>
</g>
<path d="M125.175 239.769C123.37 234.143 124.423 190.54 125.175 169.442L135.456 173.099C134.61 181.538 144.628 208.262 144.628 210.552C150.622 206.736 160.765 203.856 167.182 202.636C171.223 207.043 179.023 216.195 177.896 217.546C176.486 219.233 127.43 246.802 125.175 239.769Z" fill="#FF7CA6"/>
<mask id="mask0_1_216" style="mask-type:alpha" maskUnits="userSpaceOnUse" x="124" y="169" width="55" height="72">
<path d="M125.176 239.769C123.371 234.143 124.424 190.54 125.176 169.442L135.457 173.099C134.611 181.538 144.629 208.262 144.629 210.552C150.623 206.736 160.766 203.856 167.184 202.636C171.225 207.043 179.025 216.195 177.897 217.545C176.487 219.233 127.431 246.802 125.176 239.769Z" fill="#FF7CA6"/>
</mask>
<g mask="url(#mask0_1_216)">
<path d="M121.793 243.707C119.989 238.081 121.041 194.478 121.793 173.38L132.074 177.037C131.228 185.476 141.246 212.201 141.246 214.49C147.24 210.675 157.384 207.794 163.801 206.575C167.842 210.982 175.642 220.134 174.514 221.484C173.104 223.172 124.048 250.74 121.793 243.707Z" fill="#FB94B5"/>
<path d="M120.102 249.333C118.297 243.707 119.35 200.104 120.102 179.006L129.819 175.068C128.973 183.507 139.555 217.827 139.555 220.116C145.549 216.301 155.692 213.42 162.109 212.201C166.15 216.608 173.95 225.76 172.823 227.11C171.413 228.798 122.357 256.366 120.102 249.333Z" fill="#FFAFC9"/>
<path d="M125.872 183.507C126.098 181.932 125.027 177.037 124.463 174.786L116.287 240.05C120.328 241.269 128.804 243.82 130.383 244.27C132.357 244.832 146.527 235.685 144.48 235.83C136.586 236.393 127.846 239.769 127 238.644C126.154 237.518 126.436 235.549 126.436 231.892C126.436 228.955 126.154 214.451 125.872 212.201C125.59 209.95 125.872 204.324 125.872 202.917C125.872 201.511 125.59 185.476 125.872 183.507Z" fill="#FEF2F7"/>
</g>
<path d="M183.032 482.239C176.462 474.161 189.516 378.506 196.864 331.688C210.829 326.461 225.729 309.547 231.433 301.744C231.532 303.056 233.373 307.982 239.947 317.185C246.521 326.388 250.633 335.619 251.868 339.084C252.89 372.163 235.661 431.031 226.919 456.33C253.97 458.671 284.562 487.952 296.725 502.645L290.598 523.484C286.736 520.873 272.629 513.084 247.105 502.825C215.2 490 191.245 492.337 183.032 482.239Z" fill="url(#paint1_linear_1_216)"/>
<mask id="mask1_1_216" style="mask-type:alpha" maskUnits="userSpaceOnUse" x="181" y="301" width="116" height="223">
<path d="M183.032 482.239C176.462 474.161 189.516 378.506 196.864 331.688C210.829 326.461 225.729 309.547 231.433 301.744C231.532 303.056 233.373 307.982 239.947 317.185C246.521 326.388 250.633 335.619 251.868 339.084C252.89 372.163 235.661 431.031 226.919 456.33C253.97 458.671 284.562 487.952 296.725 502.645L290.598 523.484C286.736 520.873 272.629 513.084 247.105 502.825C215.2 490 191.245 492.337 183.032 482.239Z" fill="#F89AB8"/>
</mask>
<g mask="url(#mask1_1_216)">
<path d="M176.286 487.89C169.716 479.812 182.77 384.156 190.118 337.338C204.083 332.112 216.947 312.955 222.651 305.151C222.75 306.464 226.627 313.632 233.201 322.836C239.775 332.039 232.019 333.717 233.253 337.182C234.246 369.318 230.949 427.357 222.627 453.965C221.895 455.193 221.782 456.513 221.6 457.309C221.555 457.507 221.595 457.719 221.736 457.867C222.205 458.361 223.314 459.453 224.057 459.586C251.985 463.986 296.258 505.287 308.009 519.483L283.852 529.135C279.99 526.523 265.884 518.735 240.36 508.475C208.455 495.65 184.499 497.987 176.286 487.89Z" fill="#FBC6D7"/>
<mask id="mask2_1_216" style="mask-type:alpha" maskUnits="userSpaceOnUse" x="174" y="305" width="135" height="225">
<path d="M176.286 487.89C169.716 479.812 182.77 384.156 190.118 337.338C204.083 332.112 216.947 312.955 222.651 305.151C222.75 306.464 226.627 313.632 233.201 322.836C239.775 332.039 232.019 333.717 233.253 337.182C234.246 369.318 230.949 427.357 222.627 453.965C221.895 455.193 221.782 456.513 221.6 457.309C221.555 457.507 221.595 457.719 221.736 457.867C222.205 458.361 223.314 459.453 224.057 459.586C251.985 463.986 296.258 505.287 308.009 519.483L283.852 529.135C279.99 526.523 265.884 518.735 240.36 508.475C208.455 495.65 184.499 497.987 176.286 487.89Z" fill="#FBC6D7"/>
</mask>
<g mask="url(#mask2_1_216)">
<path d="M215.452 436.268C221.216 393.207 210.423 354.143 215.763 349.623C239.022 414.053 308.51 517.962 303.764 515.278L293.614 515.315C287.626 496.489 229.466 474.194 218.712 462.981C214.582 458.674 214.44 442.367 215.452 436.268Z" fill="#FEB3CB"/>
</g>
<path d="M198.645 371.627C201.995 362.388 205.852 337.469 204.398 325.471C180.781 343.279 175.039 470.171 175.077 480.58C175.107 488.906 240.654 527.134 273.424 545.207L302.948 523.439C289.943 513.453 239.634 494.693 233.754 490.214C226.403 484.614 195.102 482.758 191.419 477.989C187.737 473.22 191.321 450.983 191.268 436.355C191.215 421.727 194.458 383.176 198.645 371.627Z" fill="#FEF2F7"/>
</g>
<path d="M199.184 345.26L166.48 311.784C125.6 348.917 118.551 380.986 110.657 395.614C102.763 410.242 105.019 406.304 98.5343 427.683C92.0499 449.063 66.6761 504.762 67.24 513.764C67.6911 520.965 78.7052 521.265 84.1558 520.515C132.197 449.4 136.971 425.245 132.93 421.776C165.634 401.071 190.444 361.951 199.184 345.26Z" fill="#FF7CA6"/>
<mask id="mask3_1_216" style="mask-type:alpha" maskUnits="userSpaceOnUse" x="67" y="311" width="133" height="210">
<path d="M199.184 345.26L166.48 311.784C125.6 348.917 118.551 380.986 110.657 395.614C102.763 410.242 105.019 406.304 98.5343 427.683C92.0499 449.063 66.6761 504.762 67.24 513.764C67.6911 520.965 78.7052 521.265 84.1558 520.515C132.197 449.4 136.971 425.245 132.93 421.776C165.634 401.071 190.444 361.951 199.184 345.26Z" fill="#FF7CA6"/>
</mask>
<g mask="url(#mask3_1_216)">
<path d="M193.545 345.26L160.841 311.784C119.961 348.917 112.913 380.986 105.019 395.614C97.1248 410.242 99.3802 406.304 92.8958 427.683C86.4114 449.063 61.0376 504.762 61.6015 513.764C62.0526 520.965 73.0667 521.265 78.5173 520.515C120.571 458.264 126.839 436.498 127.846 424.589C127.989 422.893 129.256 421.213 128.974 419.525C130.409 418.617 132.648 417.959 134.048 416.994C164.55 395.953 185.189 361.218 193.545 345.26Z" fill="#FEB3CB"/>
<path d="M181.977 328.944L157.458 307.846C116.578 344.979 109.53 377.048 101.636 391.676C93.7418 406.304 95.9972 402.366 89.5128 423.745C83.0284 445.125 57.6546 500.824 58.2185 509.826C58.6696 517.027 70.8022 518.734 76.2528 517.984C93.7325 490.978 119.791 435.654 120.798 423.745C120.941 422.049 122.208 420.369 121.926 418.681C123.361 417.773 129.265 414.021 130.665 413.055C161.167 392.015 173.621 344.902 181.977 328.944Z" fill="#FBC6D7"/>
<path d="M138.56 353.699C141.041 350.549 160.457 326.694 169.854 315.16C168.633 313.097 165.231 309.309 161.397 310.659C156.604 312.347 140.252 322.474 115.442 345.823C90.6319 369.171 58.2099 509.545 56.5183 513.202C55.165 516.127 63.4726 517.046 67.7955 517.14C75.7836 496.604 92.4363 453.958 95.1428 447.657C98.526 439.78 108.675 408.836 110.085 405.179C111.495 401.522 135.459 357.638 138.56 353.699Z" fill="#FEF2F7"/>
</g>
<path d="M207.068 392.238C181.581 358.931 155.286 338.977 145.325 333.163C146.678 328.887 158.858 317.316 164.778 312.065C187.558 350.323 219.191 325.005 232.16 307.564C263.285 324.893 254.714 365.42 246.538 383.517C237.422 387.268 219.191 394.263 219.191 392.238V373.672C215.356 379.073 209.511 388.3 207.068 392.238Z" fill="url(#paint2_linear_1_216)"/>
<mask id="mask4_1_216" style="mask-type:alpha" maskUnits="userSpaceOnUse" x="145" y="307" width="110" height="86">
<path d="M207.068 392.238C181.581 358.931 155.286 338.977 145.325 333.163C146.678 328.887 158.858 317.316 164.778 312.065C187.558 350.323 219.191 325.005 232.16 307.564C263.285 324.893 254.714 365.42 246.538 383.517C237.422 387.268 219.191 394.263 219.191 392.238V373.672C215.356 379.073 209.511 388.3 207.068 392.238Z" fill="url(#paint3_linear_1_216)"/>
</mask>
<g mask="url(#mask4_1_216)">
<path d="M143.916 325.287C153.632 332.421 159.791 335.376 176.056 352.011C194.381 367.202 206.349 381.127 210.451 385.205C217.245 391.96 215.075 389.939 215.526 391.676C233.006 387.175 247.046 381.942 255.842 375.641" stroke="white" stroke-opacity="0.5" stroke-width="0.563862"/>
<path d="M225.111 313.481C231.689 312.919 254.432 336.83 235.824 391.685" stroke="white" stroke-opacity="0.49" stroke-width="0.563862"/>
<path d="M216.653 342.446C215.525 347.791 208.571 350.604 204.812 351.729V347.51C208.195 349.085 212.988 346.385 216.653 342.446Z" fill="url(#paint4_linear_1_216)"/>
<path d="M177.464 337.101C184.982 340.665 203.007 345.653 214.961 337.101C212.424 344.228 201.372 354.205 177.464 337.101Z" fill="url(#paint5_linear_1_216)"/>
<path d="M230.186 306.831C234.401 309.173 241.562 321.282 244.283 340.759C245.421 348.908 248.991 356.499 246.82 365.795C245.039 373.42 240.651 385.185 235.543 392.911L267.965 379.69C265.897 357.185 259.62 311.107 251.049 306.831C242.478 302.555 233.569 305.049 230.186 306.831Z" fill="#647B64" fill-opacity="0.5"/>
<path d="M150.964 332.038C154.629 335.976 172.39 352.292 172.109 354.824L142.788 332.882L145.607 323.317L164.496 309.252C170.135 311.971 180.623 318.254 177.465 321.63C174.308 325.005 169.759 321.348 167.88 319.098C162.241 321.63 161.113 321.63 159.14 323.317C157.166 328.662 150.964 331.475 150.964 332.038Z" fill="url(#paint6_linear_1_216)"/>
</g>
<path d="M222.371 254.397C224.176 274.876 231.581 300.063 235.058 310.096C200.381 358.763 168.804 328.381 165.421 317.41C162.715 308.633 162.978 274.182 163.448 258.054C155.836 254.397 140.329 234.986 152.17 225.422C161.643 217.77 179.249 203.198 188.459 195.041H204.247C222.855 208.825 220.116 228.798 222.371 254.397Z" fill="url(#paint7_linear_1_216)"/>
<mask id="mask5_1_216" style="mask-type:alpha" maskUnits="userSpaceOnUse" x="147" y="195" width="89" height="142">
<path d="M222.372 254.397C224.177 274.876 231.582 300.063 235.059 310.096C200.382 358.763 168.806 328.381 165.422 317.41C162.716 308.633 162.979 274.182 163.449 258.054C155.837 254.397 140.331 234.987 152.172 225.422C161.645 217.77 179.251 203.199 188.46 195.041H204.248C222.856 208.825 220.117 228.798 222.372 254.397Z" fill="url(#paint8_linear_1_216)"/>
</mask>
<g mask="url(#mask5_1_216)">
<path d="M208.759 216.981C208.759 230.186 198.925 236.956 186.418 236.956C173.91 236.956 161.959 226.251 161.959 213.047C161.959 199.842 171.793 193.072 184.301 193.072C196.808 193.072 208.759 203.776 208.759 216.981Z" fill="#647B64"/>
<path d="M206.65 216.242C206.65 228.262 197.526 234.424 185.923 234.424C174.32 234.424 161.959 223.837 161.959 211.817C161.959 199.797 171.082 193.635 182.686 193.635C194.289 193.635 206.65 204.222 206.65 216.242Z" fill="#647B64"/>
<path d="M168.162 275.979C169.739 269.567 160.359 259.6 158.012 256.929L153.501 316.137L160.259 324.724C169.552 322.148 162.619 308.613 168.162 296.875C171.541 289.719 166.191 283.994 168.162 275.979Z" fill="url(#paint9_linear_1_216)"/>
<path d="M173.777 285.904C175.75 295.374 168.42 307.846 191.82 322.474C177.16 322.474 166.785 316.06 173.777 285.904Z" fill="url(#paint10_linear_1_216)"/>
<path d="M175.649 290.198C177.079 293.142 175.751 297.835 184.543 300.712C179.801 301.916 175.909 300.663 175.649 290.198Z" fill="url(#paint11_linear_1_216)"/>
<path d="M212.269 232.378C212.269 223.938 212.099 215.027 206.471 207.7C211.065 209.378 217.625 220.563 212.269 232.378Z" fill="url(#paint12_linear_1_216)"/>
<path d="M162.523 258.054C169.998 256.904 173.8 258.898 186.02 251.584C183.995 253.823 165.342 271.275 162.523 258.054Z" fill="#647B64"/>
<path d="M258.38 288.034C253.176 298.432 244.805 288.034 235.19 288.034C217.656 265.996 220.807 239.043 217.656 219.677C208.324 186.338 180.043 199.6 167.034 191.124C175.33 184.437 207.928 177.72 217.656 186.761C229.817 198.063 258.38 275.885 258.38 288.034Z" fill="#647B64"/>
<path d="M146.171 235.252L157.448 210.215L164.215 213.796L162.241 218.952C160.478 222.791 156.549 228.865 151.528 232.191C148.99 232.191 150.813 242.714 150.118 243.128C148.921 243.843 147.066 234.857 146.171 235.252Z" fill="url(#paint13_linear_1_216)"/>
</g>
<path d="M326.307 511.259L320.375 508.186C311.326 578.265 287.641 577.507 278.02 567.696C302.092 597.428 320.767 538.285 321.047 537.721C327.555 528.696 330.277 517.434 330.536 511.244L326.307 511.259Z" fill="#CAF4F3"/>
<path d="M296.374 498.146C296.163 501.254 295.185 505.807 291.483 512.243C289.27 509.633 286.179 506.197 284.559 505.221C281.747 507.201 278.405 518.465 277.563 519.593C279.374 521.387 283.03 524.075 284.632 525.194C278.804 535.342 277.607 557.758 277.737 567.697C301.505 591.241 317.954 540.077 323.207 511.552C320.252 505.261 307.101 501.858 300.896 500.942L296.374 498.146Z" fill="#F6FEFD"/>
<path d="M280.934 558.211C283.19 560.462 288.546 562.712 295.595 558.211" stroke="#14D1A4" stroke-width="1.69158" stroke-linecap="round" stroke-linejoin="round"/>
<path d="M282.062 550.334C284.318 552.585 291.366 554.273 296.723 550.334" stroke="#14D1A4" stroke-width="1.69158" stroke-linecap="round" stroke-linejoin="round"/>
<path d="M284.318 543.021C286.053 544.482 289.957 546.115 295.595 543.021" stroke="#14D1A4" stroke-width="1.69158" stroke-linecap="round" stroke-linejoin="round"/>
<path d="M278.011 565.445C284.61 571.048 300.257 573.692 310.057 539.449" stroke="#CEF4F4" stroke-width="1.12772" stroke-linecap="round" stroke-linejoin="round"/>
<path d="M305.971 523.728C297.281 525.526 293.212 526.069 287.654 526.044C287.66 527.845 288.605 529.229 289.076 529.696C295.623 531.248 303.067 526.364 305.971 523.728Z" stroke="#14D1A4" stroke-width="0.563862" stroke-linecap="round"/>
<path d="M287.658 527.732C291.05 530.252 297.613 536.473 296.728 541.202C294.467 539.71 289.488 534.927 287.658 527.732Z" stroke="#14D1A4" stroke-width="0.563862"/>
<path d="M268.793 534.335C276.752 530.616 278.527 529.528 285.961 526.125C286.368 528.073 285.889 528.051 285.804 528.708C280.644 537.116 272.706 534.64 268.793 534.335Z" stroke="#14D1A4" stroke-width="0.563862" stroke-linecap="round"/>
<path d="M286.296 527.269C283.859 530.717 279.562 538.668 281.879 542.887C283.562 540.767 286.802 534.675 286.296 527.269Z" stroke="#14D1A4" stroke-width="0.563862"/>
<path d="M288.219 526.605C288.221 527.226 287.718 527.731 287.095 527.734C286.472 527.736 285.965 527.234 285.963 526.613C285.961 525.993 286.463 525.487 287.087 525.484C287.71 525.482 288.216 525.984 288.219 526.605Z" fill="#14D1A4" stroke="#14D1A4" stroke-width="0.563862"/>
<path d="M44.1427 574.518C24.0462 578.933 24.8732 564.662 27.7987 556.974C32.2981 579.591 66.3159 565.202 82.7624 555.18C82.8157 556.157 82.8825 558.276 82.7235 558.933C82.5248 559.753 69.2633 568.999 44.1427 574.518Z" fill="#C5F4F2"/>
<path d="M80.5635 545.099C83.5142 537.707 84.8431 525.387 84.7092 519.952C82.3049 520.299 70.9733 516.836 66.0375 515.26C64.5804 521.275 58.444 532.24 55.6647 535.332C39.4157 542.064 30.317 552.565 27.7988 556.974C25.1538 585.856 80.4833 560.997 82.4314 556.547C83.9898 552.987 81.8355 547.431 80.5635 545.099Z" fill="#F1FEFC"/>
<path d="M37.9091 546.395C39.5067 546.676 43.4913 548.364 46.6489 552.865" stroke="#14D1A4" stroke-width="1.69158" stroke-linecap="round" stroke-linejoin="round"/>
<path d="M45.2386 540.769C46.8362 541.05 50.8208 542.738 53.9784 547.239" stroke="#14D1A4" stroke-width="1.69158" stroke-linecap="round" stroke-linejoin="round"/>
<path d="M53.6969 535.705C55.2945 535.987 57.3057 536.268 60.4633 540.769" stroke="#14D1A4" stroke-width="1.69158" stroke-linecap="round" stroke-linejoin="round"/>
<path d="M68.3557 505.689L66.0376 515.26C70.36 522.322 79.0453 523.027 83.1879 522.29C83.6045 519.612 85.5935 515.152 86.5359 513.257C82.6063 507.447 72.7784 505.791 68.3557 505.689Z" fill="#F7FFFD"/>
<path d="M30.1239 556.956C30.9162 562.067 36.7559 570.768 53.7758 564.685" stroke="#AAFEE7" stroke-width="1.69158"/>
<path d="M74.3246 551.698C64.6463 555.731 58.9643 563.622 56.1188 566.987C58.7423 566.694 65.485 563.844 68.5284 562.455L74.3246 551.698Z" fill="#AAFEE7" stroke="#DAFFF5" stroke-width="0.563862"/>
<path d="M66.5148 517.05C70.3943 517.867 78.5433 520.33 80.1039 523.646C82.0546 527.791 68.6 523.595 66.5148 517.05Z" fill="white" stroke="#14D1A4" stroke-width="0.563862"/>
<path d="M66.387 517.4C68.1195 521.369 71.3115 530.019 70.2199 532.868C67.7305 530.818 63.4788 524.854 66.387 517.4Z" fill="white" stroke="#14D1A4" stroke-width="0.563862"/>
<path d="M65.5933 516.762C61.9382 515.229 53.834 512.623 50.6585 514.462C46.6892 516.761 60.1439 520.957 65.5933 516.762Z" stroke="#14D1A4" stroke-width="0.563862"/>
<path d="M65.4983 517.123C61.809 519.401 54.2482 524.698 53.5198 527.659C56.7361 527.389 63.6346 524.903 65.4983 517.123Z" stroke="#14D1A4" stroke-width="0.563862"/>
<path d="M67.0157 517.908C66.8203 518.451 66.5096 518.88 66.1794 519.14C65.8456 519.403 65.5299 519.467 65.2878 519.381C65.0458 519.294 64.8433 519.044 64.753 518.629C64.6637 518.219 64.6976 517.691 64.8929 517.148C65.0883 516.604 65.399 516.175 65.7292 515.915C66.063 515.653 66.3787 515.588 66.6208 515.675C66.8628 515.761 67.0653 516.012 67.1556 516.426C67.2449 516.836 67.211 517.365 67.0157 517.908Z" fill="#14D1A4" stroke="#14D1A4" stroke-width="0.563862"/>
<path d="M189.427 165.617C202.484 181.161 194.867 196.981 189.427 200.017C173.973 221.632 163.115 200.529 159.451 189.297C157.453 179.279 160.65 173.571 166.779 167.742C172.907 161.914 183.099 160.153 189.427 165.617Z" fill="#FF7CA6"/>
<mask id="mask6_1_216" style="mask-type:alpha" maskUnits="userSpaceOnUse" x="159" y="162" width="39" height="48">
<path d="M189.991 165.438C203.047 181.051 195.431 196.942 189.991 199.992C174.537 221.704 163.367 200.416 159.703 189.133C157.705 179.07 161.214 173.428 167.342 167.573C173.471 161.718 183.663 159.949 189.991 165.438Z" fill="#FF7CA6"/>
</mask>
<g mask="url(#mask6_1_216)">
<path d="M187.05 167.191C201.147 181.538 194.952 194.935 189.542 197.965C174.173 219.543 161.103 197.752 157.46 186.539C155.472 176.538 156.691 185.292 165.59 182.046C183.949 175.349 186.205 165.503 187.05 167.191Z" fill="#FEB3CB"/>
<path d="M187.05 169.16C201.992 189.415 192.208 197.35 186.768 200.386C171.313 222.001 159.137 195.302 155.473 184.07C158.856 184.632 161.673 189.545 170.698 184.914C180.565 179.85 180.565 181.257 187.05 169.16Z" fill="#FBC6D7"/>
<path d="M185.989 177.856C185.26 175.448 185.509 170.638 187.319 171.633C188.369 171.633 189.619 176.978 189.619 176.978C191.556 182.196 192.807 191.736 190.717 193.353C187.539 189.653 185.856 187.505 178.19 187.165C174.851 182.664 187.319 182.249 185.989 177.856Z" fill="#FEF2F7" fill-opacity="0.3"/>
</g>
<path d="M168.162 138.691C167.26 139.817 163.651 141.036 161.959 141.504C167.034 148.256 178.931 162.546 185.923 165.697C192.915 168.848 194.851 180.138 194.945 185.389C195.396 186.289 195.697 192.515 195.791 195.516C198.723 195.291 199.582 190.734 199.646 188.483C200.236 191.964 199.823 196.754 199.456 199.173C203.516 199.398 209.021 194.015 211.266 191.296C211.802 197.373 211.036 200.684 210.451 201.705C212.707 200.579 218.345 196.922 222.856 191.296C228.495 184.263 221.447 177.231 218.909 176.105C216.372 174.98 215.808 151.35 214.962 145.443C214.286 140.717 207.538 134.659 204.249 132.221C177.465 119.844 169.289 137.285 168.162 138.691Z" fill="url(#paint14_linear_1_216)"/>
<path d="M198.617 175.082C197.039 173.507 193.073 177.145 191.569 179.583C190.638 180.989 190.159 185.49 195.798 182.959C201.437 180.427 200.591 177.051 198.617 175.082Z" fill="#FBC6D7" stroke="url(#paint15_linear_1_216)" stroke-width="0.563862"/>
<path fill-rule="evenodd" clip-rule="evenodd" d="M195.548 177.534C194.595 178.366 193.725 179.59 193.217 180.466C193.139 180.6 192.966 180.646 192.832 180.568C192.697 180.491 192.651 180.319 192.729 180.184C193.254 179.279 194.161 177.998 195.177 177.11C195.684 176.667 196.237 176.305 196.801 176.148C197.378 175.988 197.967 176.045 198.499 176.443C198.623 176.536 198.649 176.712 198.555 176.837C198.462 176.961 198.285 176.986 198.161 176.893C197.79 176.616 197.388 176.569 196.952 176.69C196.504 176.815 196.025 177.117 195.548 177.534ZM197.305 177.294C197.426 177.196 197.603 177.214 197.702 177.334C197.926 177.607 198.148 177.947 198.289 178.302C198.429 178.652 198.504 179.053 198.378 179.424C198.246 179.812 197.917 180.098 197.398 180.253C196.888 180.404 196.171 180.438 195.195 180.323C195.041 180.305 194.93 180.165 194.948 180.011C194.967 179.857 195.107 179.746 195.261 179.764C196.203 179.875 196.833 179.833 197.237 179.713C197.632 179.596 197.786 179.415 197.844 179.243C197.909 179.054 197.882 178.802 197.765 178.51C197.651 178.223 197.464 177.932 197.266 177.69C197.167 177.57 197.185 177.393 197.305 177.294Z" fill="#FC719A"/>
<path d="M168.444 177.037C151.303 187.84 139.405 173.38 135.458 164.379C145.044 154.814 143.36 156.304 151.528 151.72C156.039 149.188 158.294 150.032 159.986 140.186C163.595 140.861 181.413 143.28 187.615 155.939L189.589 156.221C213.271 160.271 216.278 149.375 214.681 143.562C225.732 162.015 200.96 164.097 187.615 162.691C186.487 165.222 185.585 166.235 168.444 177.037Z" fill="url(#paint16_linear_1_216)"/>
<mask id="mask7_1_216" style="mask-type:alpha" maskUnits="userSpaceOnUse" x="135" y="140" width="83" height="41">
<path d="M168.444 177.037C151.303 187.84 139.405 173.38 135.458 164.379C145.044 154.814 143.36 156.304 151.528 151.72C156.039 149.188 158.294 150.032 159.986 140.186C163.595 140.861 181.413 143.28 187.615 155.939L189.589 156.221C213.271 160.271 216.278 149.375 214.681 143.562C225.732 162.015 200.96 164.097 187.615 162.691C186.487 165.222 185.585 166.235 168.444 177.037Z" fill="url(#paint17_linear_1_216)"/>
</mask>
<g mask="url(#mask7_1_216)">
<path d="M150.964 187.164L179.721 173.38C174.365 168.317 163.369 173.37 156.039 166.337C148.709 159.304 156.603 154.241 149.273 151.99L126.437 162.972L150.964 187.164Z" fill="url(#paint18_linear_1_216)" fill-opacity="0.3"/>
<path d="M147.507 156.662C137.53 160.413 138.727 162.289 135.74 165.811L133.767 162.998L143.071 152.589L158.295 136.529C164.215 139.904 158.432 148.581 156.885 149.75C153.785 152.094 152.106 151.774 149.461 155.186C148.953 155.842 148.283 156.37 147.507 156.662Z" fill="#C1DBF7"/>
</g>
<path d="M159.705 150.594C159.987 154.157 167.317 160.246 184.796 162.778" stroke="#BAD4F6" stroke-width="0.563862" stroke-linecap="round" stroke-linejoin="round"/>
<path d="M172.885 149.898C168.424 148.828 166.638 147.858 164.427 145.337C163.624 147.539 165.283 152.012 166.365 152.088C166.593 152.104 170.785 149.783 172.885 149.898Z" fill="#B8D2F6"/>
<path d="M167.314 220.358C156.663 209.066 130.127 183.14 118.802 173.556C118.448 173.256 118.233 172.846 118.298 172.386C119.121 166.592 131.372 145.399 146.452 130.621C148.989 124.432 150.962 124.713 153.782 116.837C156.037 110.535 162.24 109.71 165.623 110.929C166.751 111.335 165.922 113.064 163.931 113.461C161.112 114.023 159.138 116.837 159.138 118.524C159.138 119.684 158.011 126.964 166.187 123.588C168.442 120.775 169.852 125.557 160.83 132.027C153.782 135.122 133.765 164.907 136.02 166.347C141.957 168.106 150.482 181.799 169.57 187.164C189.587 192.79 208.194 204.605 201.428 220.358C194.662 236.112 180.847 234.705 167.314 220.358Z" fill="#FF7CA6"/>
<mask id="mask8_1_216" style="mask-type:alpha" maskUnits="userSpaceOnUse" x="118" y="110" width="85" height="122">
<path d="M167.316 220.359C156.664 209.066 130.128 183.141 118.804 173.556C118.449 173.256 118.234 172.846 118.299 172.386C119.123 166.592 131.373 145.399 146.453 130.621C148.99 124.432 150.964 124.713 153.783 116.837C156.039 110.535 162.241 109.71 165.624 110.929C166.752 111.336 165.923 113.064 163.933 113.461C161.113 114.024 159.14 116.837 159.14 118.525C159.14 119.684 158.012 126.964 166.188 123.588C168.444 120.775 169.853 125.557 160.831 132.027C153.783 135.122 133.766 164.907 136.021 166.347C141.958 168.106 150.484 181.799 169.571 187.164C189.588 192.79 208.196 204.605 201.429 220.359C194.663 236.112 180.848 234.705 167.316 220.359Z" fill="#FF7CA6"/>
</mask>
<g mask="url(#mask8_1_216)">
<path d="M163.654 222.524C153.002 211.231 126.466 185.306 115.142 175.721C114.787 175.421 114.572 175.011 114.637 174.552C115.461 168.758 127.711 147.564 142.791 132.786C145.328 126.597 147.302 126.879 150.121 119.002C152.377 112.701 162.24 108.585 165.623 109.804C166.751 110.21 167.049 113.345 165.059 113.742C162.24 114.305 160.548 116.484 159.984 118.453C159.665 119.568 157.447 126.133 165.623 122.758C167.878 119.944 169.006 126.401 157.729 132.786C150.681 135.881 130.104 167.072 132.36 168.513C138.296 170.271 146.822 183.965 165.909 189.329C185.926 194.956 204.534 206.771 197.768 222.524C191.001 238.277 177.187 236.871 163.654 222.524Z" fill="#FEB3CB"/>
<mask id="mask9_1_216" style="mask-type:alpha" maskUnits="userSpaceOnUse" x="114" y="109" width="86" height="125">
<path d="M163.654 222.524C153.002 211.231 126.466 185.306 115.142 175.721C114.787 175.421 114.572 175.011 114.637 174.552C115.461 168.758 127.711 147.564 142.791 132.786C145.328 126.597 147.302 126.879 150.121 119.002C152.377 112.701 162.24 108.585 165.623 109.804C166.751 110.21 167.049 113.345 165.059 113.742C162.24 114.305 160.548 116.484 159.984 118.453C159.665 119.568 157.447 126.133 165.623 122.758C167.878 119.944 169.006 126.401 157.729 132.786C150.681 135.881 130.104 167.072 132.36 168.513C138.296 170.271 146.822 183.965 165.909 189.329C185.926 194.956 204.534 206.771 197.768 222.524C191.001 238.277 177.187 236.871 163.654 222.524Z" fill="#FEB3CB"/>
</mask>
<g mask="url(#mask9_1_216)">
<path d="M160.834 222.738C150.182 211.445 123.646 185.52 112.322 175.935C111.968 175.635 111.752 175.225 111.818 174.766C112.641 168.972 124.892 147.778 139.971 133C142.509 126.811 144.482 127.093 147.302 119.216C149.557 112.915 165.904 108.022 169.288 109.241C170.415 109.648 171.543 116.06 166.186 115.149C163.352 114.667 163.654 117.247 163.09 119.216C162.77 120.331 159.42 124.432 167.596 121.056C169.851 118.243 170.133 123.673 158.856 130.058C151.808 133.153 127.284 167.286 129.54 168.726C135.476 170.485 144.002 184.178 163.09 189.543C183.107 195.169 201.714 206.984 194.948 222.738C188.182 238.491 174.367 237.084 160.834 222.738Z" fill="#FBC6D7"/>
<path d="M164.213 111.773C170.698 116.837 170.484 107.835 166.187 106.991C161.394 108.866 147.398 115.036 145.82 115.712C143.846 116.555 115.439 174.505 113.184 176.193C111.38 177.543 125.683 186.32 130.946 194.197L189.587 238.362C190.997 232.455 187.163 229.867 181.975 227.391C175.491 224.297 171.262 222.609 168.442 217.546C165.623 212.482 152.654 199.823 146.734 194.197C140.813 188.571 121.642 175.068 121.642 170.848C121.642 167.914 130.664 153.688 140.813 138.498C153.782 126.964 157.709 106.694 164.213 111.773Z" fill="#FEF2F7"/>
</g>
</g>
<path d="M273.885 273.807C282.563 294.231 278.148 294.522 253.304 305.033C228.46 315.543 201.649 332.329 192.971 311.905C184.292 291.481 169.808 243.207 194.653 232.696C219.497 222.186 265.206 253.383 273.885 273.807Z" fill="url(#paint19_linear_1_216)"/>
<ellipse cx="50.8545" cy="43.9963" rx="50.8545" ry="43.9963" transform="matrix(0.920973 -0.389626 0.391086 0.920354 170.417 272.084)" fill="url(#paint20_radial_1_216)" fill-opacity="0.5"/>
<ellipse cx="47.3464" cy="40.0765" rx="47.3464" ry="40.0765" transform="matrix(0.920973 -0.389626 0.391086 0.920354 174.927 274.976)" fill="#F0DCC5"/>
<ellipse cx="44.812" cy="36.8639" rx="44.812" ry="36.8639" transform="matrix(0.920973 -0.389626 0.391086 0.920354 178.31 275.814)" fill="url(#paint21_radial_1_216)"/>
<mask id="mask10_1_216" style="mask-type:alpha" maskUnits="userSpaceOnUse" x="190" y="254" width="88" height="77">
<ellipse cx="44.812" cy="36.8639" rx="44.812" ry="36.8639" transform="matrix(0.920973 -0.389626 0.391086 0.920354 178.31 275.814)" fill="#D16035"/>
</mask>
<g mask="url(#mask10_1_216)">
<path d="M250.39 231.176C258.112 249.349 246.497 271.932 223.985 281.456C201.473 290.98 177.129 283.609 169.407 265.437C161.685 247.264 173.3 224.681 195.812 215.157C218.324 205.633 242.668 213.003 250.39 231.176Z" stroke="url(#paint22_radial_1_216)" stroke-width="1.69158"/>
<path d="M296.392 334.135C304.165 352.428 295.32 373.697 276.588 381.622C257.856 389.547 236.385 381.103 228.612 362.81C220.839 344.517 229.683 323.248 248.416 315.323C267.148 307.398 288.619 315.842 296.392 334.135Z" stroke="url(#paint23_linear_1_216)" stroke-width="1.69158"/>
</g>
<ellipse cx="91.8563" cy="91.7549" rx="91.8563" ry="91.7549" transform="matrix(-0.866503 -0.499173 0.500828 -0.865547 159.187 307.073)" fill="url(#paint24_linear_1_216)"/>
<defs>
<linearGradient id="paint0_linear_1_216" x1="265.427" y1="23.1606" x2="218.794" y2="119.168" gradientUnits="userSpaceOnUse">
<stop stop-color="#FFFF97" stop-opacity="0.945806"/>
<stop offset="0.456015" stop-color="white"/>
<stop offset="1" stop-color="white" stop-opacity="0.4"/>
</linearGradient>
<linearGradient id="paint1_linear_1_216" x1="261.527" y1="374.495" x2="239.215" y2="523.685" gradientUnits="userSpaceOnUse">
<stop stop-color="#FF78A3"/>
<stop offset="1" stop-color="#FF8EB2"/>
</linearGradient>
<linearGradient id="paint2_linear_1_216" x1="199.747" y1="307.564" x2="175.871" y2="392.828" gradientUnits="userSpaceOnUse">
<stop stop-color="#647B64"/>
<stop offset="1" stop-color="#647B64"/>
</linearGradient>
<linearGradient id="paint3_linear_1_216" x1="199.747" y1="307.564" x2="175.871" y2="392.828" gradientUnits="userSpaceOnUse">
<stop stop-color="#647B64"/>
<stop offset="1" stop-color="#647B64"/>
</linearGradient>
<linearGradient id="paint4_linear_1_216" x1="218.909" y1="348.916" x2="206.223" y2="347.221" gradientUnits="userSpaceOnUse">
<stop stop-color="#C1C5FF"/>
<stop offset="1" stop-color="#C1C5FF" stop-opacity="0"/>
</linearGradient>
<linearGradient id="paint5_linear_1_216" x1="206.503" y1="335.414" x2="201.729" y2="348.361" gradientUnits="userSpaceOnUse">
<stop stop-color="#C1C5FF"/>
<stop offset="1" stop-color="#C7CAFF" stop-opacity="0"/>
</linearGradient>
<linearGradient id="paint6_linear_1_216" x1="163.087" y1="329.225" x2="159.156" y2="311.499" gradientUnits="userSpaceOnUse">
<stop stop-color="#DBF3F8"/>
<stop offset="1" stop-color="#99B5F3"/>
</linearGradient>
<linearGradient id="paint7_linear_1_216" x1="191.641" y1="191.383" x2="195.29" y2="344.697" gradientUnits="userSpaceOnUse">
<stop stop-color="#647B64"/>
<stop offset="1" stop-color="#647B64"/>
</linearGradient>
<linearGradient id="paint8_linear_1_216" x1="191.642" y1="191.384" x2="195.291" y2="344.698" gradientUnits="userSpaceOnUse">
<stop stop-color="#647B64"/>
<stop offset="1" stop-color="#647B64"/>
</linearGradient>
<linearGradient id="paint9_linear_1_216" x1="156.317" y1="271.786" x2="169.099" y2="326.063" gradientUnits="userSpaceOnUse">
<stop stop-color="#99B5F3"/>
<stop offset="1" stop-color="#DBF3F8"/>
</linearGradient>
<linearGradient id="paint10_linear_1_216" x1="185.618" y1="329.225" x2="166.504" y2="301.336" gradientUnits="userSpaceOnUse">
<stop stop-color="#C1C5FF"/>
<stop offset="1" stop-color="#C1C5FF" stop-opacity="0"/>
</linearGradient>
<linearGradient id="paint11_linear_1_216" x1="186.768" y1="314.597" x2="174.365" y2="296.013" gradientUnits="userSpaceOnUse">
<stop stop-color="#C1C5FF"/>
<stop offset="1" stop-color="#C1C5FF" stop-opacity="0"/>
</linearGradient>
<linearGradient id="paint12_linear_1_216" x1="212.706" y1="204.043" x2="217.246" y2="229.023" gradientUnits="userSpaceOnUse">
<stop stop-color="#C1C5FF"/>
<stop offset="1" stop-color="#C1C5FF" stop-opacity="0"/>
</linearGradient>
<linearGradient id="paint13_linear_1_216" x1="165.342" y1="243.691" x2="158.605" y2="207.959" gradientUnits="userSpaceOnUse">
<stop stop-color="#647B64"/>
<stop offset="1" stop-color="#DBF3F8"/>
</linearGradient>
<linearGradient id="paint14_linear_1_216" x1="193.254" y1="155.57" x2="193.472" y2="201.705" gradientUnits="userSpaceOnUse">
<stop stop-color="#050753"/>
<stop offset="1" stop-color="#008294"/>
</linearGradient>
<linearGradient id="paint15_linear_1_216" x1="198.611" y1="177.231" x2="192.132" y2="180.336" gradientUnits="userSpaceOnUse">
<stop stop-color="#FC719A"/>
<stop offset="1" stop-color="#FC719A" stop-opacity="0"/>
</linearGradient>
<linearGradient id="paint16_linear_1_216" x1="138.841" y1="178.444" x2="218.877" y2="153.024" gradientUnits="userSpaceOnUse">
<stop stop-color="#647B64"/>
<stop offset="0.511301" stop-color="#647B64"/>
<stop offset="0.857583" stop-color="#5EC0DF"/>
<stop offset="1" stop-color="white"/>
</linearGradient>
<linearGradient id="paint17_linear_1_216" x1="180.567" y1="160.721" x2="223.982" y2="155.636" gradientUnits="userSpaceOnUse">
<stop stop-color="#02C3CD"/>
<stop offset="1" stop-color="white"/>
</linearGradient>
<linearGradient id="paint18_linear_1_216" x1="151.81" y1="178.444" x2="154.056" y2="157.344" gradientUnits="userSpaceOnUse">
<stop stop-color="white"/>
<stop offset="1" stop-color="#003BD5" stop-opacity="0"/>
<stop offset="1" stop-color="white"/>
</linearGradient>
<linearGradient id="paint19_linear_1_216" x1="194.38" y1="247.364" x2="241.485" y2="329.311" gradientUnits="userSpaceOnUse">
<stop stop-color="#F5FF7C" stop-opacity="0"/>
<stop offset="0.544444" stop-color="#F0DCC5"/>
<stop offset="1" stop-color="#AD8B64"/>
</linearGradient>
<radialGradient id="paint20_radial_1_216" cx="0" cy="0" r="1" gradientUnits="userSpaceOnUse" gradientTransform="translate(51.4643 97.9093) rotate(-84.1336) scale(64.9465 75.1031)">
<stop stop-color="#FFEC3E"/>
<stop offset="1" stop-color="#F0DCC5"/>
</radialGradient>
<radialGradient id="paint21_radial_1_216" cx="0" cy="0" r="1" gradientUnits="userSpaceOnUse" gradientTransform="translate(42.4089 5.38105) rotate(91.0373) scale(85.8559 104.367)">
<stop stop-color="#F0DCC5"/>
<stop offset="0.546875" stop-color="#F0DCC5"/>
<stop offset="1" stop-color="#CF9B5E"/>
</radialGradient>
<radialGradient id="paint22_radial_1_216" cx="0" cy="0" r="1" gradientUnits="userSpaceOnUse" gradientTransform="translate(220.035 297.156) rotate(-100.483) scale(55.7863 67.8499)">
<stop stop-color="white"/>
<stop offset="1" stop-color="white" stop-opacity="0"/>
</radialGradient>
<linearGradient id="paint23_linear_1_216" x1="240.616" y1="299.969" x2="254.945" y2="327.282" gradientUnits="userSpaceOnUse">
<stop stop-color="white"/>
<stop offset="1" stop-color="white" stop-opacity="0"/>
</linearGradient>
<linearGradient id="paint24_linear_1_216" x1="276.662" y1="-522.129" x2="42.0234" y2="204.416" gradientUnits="userSpaceOnUse">
<stop stop-color="#EF8031" stop-opacity="0"/>
<stop offset="0.692955" stop-color="#EF8031" stop-opacity="0.15"/>
<stop offset="1" stop-color="#EF8031" stop-opacity="0"/>
</linearGradient>
<clipPath id="clip0_1_216">
<rect width="120.908" height="157.815" fill="white" transform="matrix(0.897385 0.441248 -0.442818 0.896612 188.988 0.656006)"/>
</clipPath>
</defs>
</svg>
